<?xml version="1.0" encoding="utf-8" ?>
<svg xmlns="http://www.w3.org/2000/svg" xmlns:xlink="http://www.w3.org/1999/xlink" width="500" height="500">
	<path fill="#FEFEFE" transform="scale(0.488281 0.488281)" d="M-0 -0L1024 0L1024 1024L-0 1024L0 -0Z"/>
	<path fill="#49B6EA" transform="scale(0.488281 0.488281)" d="M97.3976 731.996L111.75 733.307C124.97 749.59 140.801 762.973 156.518 776.696L143.675 792.571C142.289 794.408 140.194 796.836 139.425 799.034C123.315 777.95 108.612 756.115 97.3976 731.996Z"/>
	<path fill="#49B6EA" transform="scale(0.488281 0.488281)" d="M920.537 731.91L929.562 730.75C916.918 755.396 901.94 780.001 884.164 801.293C878.506 790.484 869.559 780.101 862.048 770.481C867.693 767.088 873.96 764.615 879.698 761.299C894.411 752.795 907.535 742.787 920.537 731.91Z"/>
	<path fill="#1DAA69" transform="scale(0.488281 0.488281)" d="M236.16 841.935C237.241 850.244 240.081 856.16 246.794 861.344L247.786 862.073C244.811 865.278 243.544 870.034 242.816 874.25L242.699 874.874C242.005 878.836 242.142 884.457 242.865 888.406C243.388 891.266 244.35 894.048 244.293 896.979C228.027 885.904 212.197 873.9 197.455 860.841L177.867 842.147C183.786 841.139 190.861 841.868 196.899 841.887L236.16 841.935Z"/>
	<path fill="#49B6EA" transform="scale(0.488281 0.488281)" d="M185.779 799.98C196.166 806.958 207.197 813.286 218.498 818.672L236.242 826.409L236.16 841.935L196.899 841.887C190.861 841.868 183.786 841.139 177.867 842.147L141.015 800.923C146.191 802.152 152.077 802.311 157.4 802.469C167.273 802.763 176.207 802.785 185.779 799.98Z"/>
	<path fill="#8BE382" transform="scale(0.488281 0.488281)" d="M81.5952 701.469C90.7991 696.672 101.949 691.868 112.294 690.36C117.685 689.573 124.056 689.826 129.451 690.404C132.622 690.744 135.687 691.73 138.807 692.367L154.5 704.21C153.029 705.26 152.191 705.659 150.382 705.834L149.5 706.245L151.641 706.646L153.307 706.676C152.799 711.854 144.507 719.5 140.588 722.728C132.128 729.699 122.549 732.732 111.75 733.307L97.3976 731.996C82.2999 727.6 68.3616 722.493 54.3709 715.228L81.5952 701.469Z"/>
	<path fill="#46C486" transform="scale(0.488281 0.488281)" d="M151.641 706.646L66 716.416C64.6271 716.685 63.4824 716.813 62.0852 716.833L64.25 716.175C69.9421 714.806 75.9604 714.144 81.75 713.297L130.208 706.878L143.554 705.733C145.757 705.607 148.258 705.188 150.382 705.834L149.5 706.245L151.641 706.646Z"/>
	<path fill="#8BE382" transform="scale(0.488281 0.488281)" d="M184.823 634.582C188.991 631.436 207.358 618.513 211.531 619.034L212.25 619.158C212.844 621.171 212.566 623.462 212.504 625.552L211.36 640.784C209.58 651.862 206.194 660.261 200.819 670.056C193.339 679.889 183.949 688.329 171.225 690.135L169.773 690.279L167.389 690.839C162.118 692.108 156.698 693.386 151.25 693.421C148.157 693.441 145.042 692.72 141.97 692.406L137.802 690.731L138.807 692.367C135.687 691.73 132.622 690.744 129.451 690.404C124.056 689.826 117.685 689.573 112.294 690.36C101.949 691.868 90.7991 696.672 81.5952 701.469C79.4776 697.282 78.1454 692.856 76.5008 688.477C70.6954 673.019 66.6629 657.124 61.5412 641.476L82.5349 641.319C85.6632 641.262 89.9279 640.618 92.9286 641.417L93.227 641.484C95.1436 640.724 98.5683 641.423 100.643 641.573C108.142 642.063 114.951 644.008 122.276 645.371C133.769 649.944 146.149 655.854 154.877 664.838C158.427 668.492 161.316 672.915 163.886 677.291L164.778 667.353C168.818 654.189 174.605 644.032 184.823 634.582Z"/>
	<path fill="#8CEB67" transform="scale(0.488281 0.488281)" d="M93.227 641.484C95.1436 640.724 98.5683 641.423 100.643 641.573L100.843 642.464C99.8041 643.035 99.4049 643.097 98.75 644.123L97 643.617C96.2076 644.47 96.4898 643.973 96.1687 645.117L95.3363 645.58L93.227 641.484Z"/>
	<path fill="#49B6EA" transform="scale(0.488281 0.488281)" d="M61.5412 641.476L82.5349 641.319C85.6632 641.262 89.9279 640.618 92.9286 641.417L93.227 641.484L95.3363 645.58C102.671 660.798 111.818 676.978 126.75 685.851C130.22 687.914 134.062 689.252 137.802 690.731L138.807 692.367C135.687 691.73 132.622 690.744 129.451 690.404C124.056 689.826 117.685 689.573 112.294 690.36C101.949 691.868 90.7991 696.672 81.5952 701.469C79.4776 697.282 78.1454 692.856 76.5008 688.477C70.6954 673.019 66.6629 657.124 61.5412 641.476Z"/>
	<path fill="#1DAA69" transform="scale(0.488281 0.488281)" d="M236.874 669.14L237.541 669.043L237.356 692.377L236.98 733.087L236.242 826.409L218.498 818.672C207.197 813.286 196.166 806.958 185.779 799.98C176.207 802.785 167.273 802.763 157.4 802.469C152.077 802.311 146.191 802.152 141.015 800.923L139.425 799.034C140.194 796.836 142.289 794.408 143.675 792.571L156.518 776.696C140.801 762.973 124.97 749.59 111.75 733.307C122.549 732.732 132.128 729.699 140.588 722.728C144.507 719.5 152.799 711.854 153.307 706.676L151.641 706.646L149.5 706.245L150.382 705.834C152.191 705.659 153.029 705.26 154.5 704.21L138.807 692.367L137.802 690.731L141.97 692.406C145.042 692.72 148.157 693.441 151.25 693.421C156.698 693.386 162.118 692.108 167.389 690.839L169.773 690.279L171.225 690.135C183.949 688.329 193.339 679.889 200.819 670.056C202.546 672.551 202.986 675.805 204.068 678.634C206.656 685.399 210.625 694.333 215.158 699.886C219.939 687.196 226.072 677.572 236.874 669.14Z"/>
	<path fill="#1E9D63" transform="scale(0.488281 0.488281)" d="M167.389 690.839L169.773 690.279L183.495 717.577C184.782 720.045 185.93 723.293 187.645 725.456C189.292 727.533 192.603 729.376 194.785 730.857L217.228 744.754C221.177 746.977 225.438 748.692 229.215 751.202L228.899 751.75L222.506 749.672C218.663 746.87 213.675 744.881 209.448 742.614C204.669 740.05 200.118 737.066 195.585 734.093L154.5 704.21L138.807 692.367L137.802 690.731L141.97 692.406C145.042 692.72 148.157 693.441 151.25 693.421C156.698 693.386 162.118 692.108 167.389 690.839Z"/>
	<path fill="#010000" transform="scale(0.488281 0.488281)" d="M167.389 690.839L169.773 690.279L183.495 717.577C184.782 720.045 185.93 723.293 187.645 725.456C189.292 727.533 192.603 729.376 194.785 730.857L217.228 744.754C221.177 746.977 225.438 748.692 229.215 751.202L228.899 751.75L222.506 749.672C218.663 746.87 213.675 744.881 209.448 742.614C204.669 740.05 200.118 737.066 195.585 734.093L154.5 704.21L138.807 692.367L137.802 690.731L141.97 692.406L184.301 723.566L167.389 690.839Z"/>
	<path fill="#8BE382" transform="scale(0.488281 0.488281)" d="M236.874 669.14L237.541 669.043L237.356 692.377L236.98 733.087C232.436 737.096 227.162 739.965 221.256 741.45L219.861 740.807L219.879 740.838L219.409 741.75L218.637 741.373C214.927 730.799 211.692 720.251 213.325 708.888L213.461 708L215.158 699.886C219.939 687.196 226.072 677.572 236.874 669.14Z"/>
	<path fill="#8BE382" transform="scale(0.488281 0.488281)" d="M156.518 776.696L163.529 769.842C177.67 757.106 193.855 749.805 213 749.233C216.133 749.14 219.375 749.497 222.506 749.672L228.899 751.75C230.087 752.497 231.361 752.934 231.91 754.25C225.757 772.225 213.798 787.112 196.586 795.642L185.779 799.98C176.207 802.785 167.273 802.763 157.4 802.469C152.077 802.311 146.191 802.152 141.015 800.923L139.425 799.034C140.194 796.836 142.289 794.408 143.675 792.571L156.518 776.696Z"/>
	<path fill="#1DAA69" transform="scale(0.488281 0.488281)" d="M154.5 704.21L195.585 734.093C200.118 737.066 204.669 740.05 209.448 742.614C213.675 744.881 218.663 746.87 222.506 749.672C219.375 749.497 216.133 749.14 213 749.233C193.855 749.805 177.67 757.106 163.529 769.842L156.518 776.696C140.801 762.973 124.97 749.59 111.75 733.307C122.549 732.732 132.128 729.699 140.588 722.728C144.507 719.5 152.799 711.854 153.307 706.676L151.641 706.646L149.5 706.245L150.382 705.834C152.191 705.659 153.029 705.26 154.5 704.21Z"/>
	<path fill="#7ACFF0" transform="scale(0.488281 0.488281)" d="M81.9874 511.408C81.8403 509.391 81.8108 507.411 81.0946 505.5L81.75 505L82.2313 505.303C83.6952 506.209 84.5014 506.359 86.1154 506.821L96.3773 511.665C99.9221 510.882 103.681 511.242 107.294 511.3L123.42 511.456C134.483 511.487 145.993 510.811 157.004 511.559L153.922 537.828L138.937 560.341C137.253 568.631 133.052 576.593 131.55 584.918L129.919 585.413L144.619 620.547C147.372 626.118 149.062 632.392 151.072 638.268L145.519 639.278C140.013 639.934 134.596 642.532 129.113 643.695C127.857 643.962 125.854 644.574 124.627 644.288L122.276 645.371C114.951 644.008 108.142 642.063 100.643 641.573C98.5683 641.423 95.1436 640.724 93.227 641.484L92.9286 641.417C89.9279 640.618 85.6632 641.262 82.5349 641.319L61.5412 641.476C56.2279 624.356 52.6374 606.436 49.8329 588.75C45.7357 562.913 43.5419 537.465 43.359 511.3L81.9874 511.408Z"/>
	<path fill="#46C486" transform="scale(0.488281 0.488281)" d="M124.627 644.288C118.667 641.91 112.456 639.988 106.655 637.244C89.3876 629.075 74.9234 616.443 60.8854 603.735C65.7837 603.582 70.5939 602.571 75.4816 602.165C93.2047 600.692 111.669 601.292 128.055 608.985C130.9 610.321 133.754 611.913 136.267 613.804C138.564 615.531 141.605 619.53 144.066 620.424L144.619 620.547C147.372 626.118 149.062 632.392 151.072 638.268L145.519 639.278C140.013 639.934 134.596 642.532 129.113 643.695C127.857 643.962 125.854 644.574 124.627 644.288Z"/>
	<path fill="#46C486" transform="scale(0.488281 0.488281)" d="M81.9874 511.408C81.8403 509.391 81.8108 507.411 81.0946 505.5L81.75 505L82.2313 505.303C83.6952 506.209 84.5014 506.359 86.1154 506.821L96.3773 511.665C99.9221 510.882 103.681 511.242 107.294 511.3L123.42 511.456C134.483 511.487 145.993 510.811 157.004 511.559L153.922 537.828L138.937 560.341C137.253 568.631 133.052 576.593 131.55 584.918L129.919 585.413C129.724 584.269 124.443 584.501 122.875 584.098C117.218 582.644 111.937 580.174 107.396 576.481C100.626 570.976 96.4058 563.052 93.0082 555.165C86.9015 540.99 83.5629 526.723 81.9874 511.408Z"/>
	<path fill="#7ACFF0" transform="scale(0.488281 0.488281)" d="M96.3773 511.665C99.9221 510.882 103.681 511.242 107.294 511.3L123.42 511.456C134.483 511.487 145.993 510.811 157.004 511.559L153.922 537.828L138.937 560.341C137.569 554.675 135.953 549.356 133.077 544.25C124.983 529.878 109.907 520.363 96.3773 511.665Z"/>
	<path fill="#7ACFF0" transform="scale(0.488281 0.488281)" d="M43.9887 483.918C46.1376 451.083 52.2092 418.877 60.6427 387.12L198.928 387.109C188.307 407.533 178.721 428.465 171.55 450.376L162.295 484.031L157.004 511.559C145.993 510.811 134.483 511.487 123.42 511.456L107.294 511.3C103.681 511.242 99.9221 510.882 96.3773 511.665L86.1154 506.821C84.5014 506.359 83.6952 506.209 82.2313 505.303L81.75 505L81.0946 505.5C81.8108 507.411 81.8403 509.391 81.9874 511.408L43.359 511.3L43.9887 483.918Z"/>
	<path fill="#FEFEFE" transform="scale(0.488281 0.488281)" d="M107.933 444.149C109.939 444.215 112.115 444.33 114 445.073C117.81 446.575 120.491 449.965 121.88 453.734C123.061 456.942 122.566 460.285 120.99 463.25C118.917 467.148 115.532 469.231 111.425 470.503C108.272 470.599 105.789 470.604 103 468.975C99.8975 467.162 97.4588 464.166 96.6735 460.605C95.9444 457.299 96.3181 452.948 98.1256 450.054C100.425 446.373 103.853 444.965 107.933 444.149Z"/>
	<path fill="#49B6EA" transform="scale(0.488281 0.488281)" d="M43.9887 483.918L162.295 484.031L157.004 511.559C145.993 510.811 134.483 511.487 123.42 511.456L107.294 511.3C103.681 511.242 99.9221 510.882 96.3773 511.665L86.1154 506.821C84.5014 506.359 83.6952 506.209 82.2313 505.303L81.75 505L81.0946 505.5C81.8108 507.411 81.8403 509.391 81.9874 511.408L43.359 511.3L43.9887 483.918Z"/>
	<path fill="#8BE382" transform="scale(0.488281 0.488281)" d="M813.751 628.546L809.775 607.502C811.151 607.725 814.114 610.589 815.409 611.562C823.356 617.53 831.002 623.296 838.326 630.041C847.913 639.779 854.377 648.769 858.273 662.088C859.244 666.171 859.697 670.15 860.048 674.328C860.926 673.876 862.53 670.307 863.2 669.277C865.459 665.803 868.158 662.59 870.751 659.362C872.562 657.719 874.084 655.895 875.658 654.033C877.374 649.13 879.345 644.096 880.355 638.992C883.244 639.717 886.014 641.097 888.877 641.704C897.266 643.485 904.756 641.578 913.026 640.947L912 642.035C917.765 642.493 924.016 640.339 929.944 640.343C931.646 640.344 933.22 640.249 934.82 640.927C937.9 641.7 941.452 641.379 944.627 641.389L963.941 641.463L943.427 701.467C952.245 705.712 962.503 709.774 970.651 715.159C961.177 720.194 951.905 724.011 941.674 727.292C937.694 728.569 933.435 729.253 929.562 730.75L920.537 731.91C907.535 742.787 894.411 752.795 879.698 761.299C873.96 764.615 867.693 767.088 862.048 770.481C855.076 761.862 845.568 751.701 835.28 747.226C830.28 745.051 824.886 744.069 819.549 743.134L817.555 742.963C812.654 742.813 807.647 743.494 802.808 744.219C806.501 740.232 808.993 735.819 810.858 730.721C816.008 716.649 812.661 703.186 806.54 690.086L794.248 669.917L793.401 668.267C795.482 664.297 796.877 660.038 798.709 655.953C801.185 650.436 804.201 645.2 807.128 639.917C809.227 636.128 811.166 632.027 813.751 628.546Z"/>
	<path fill="#1E9D63" transform="scale(0.488281 0.488281)" d="M880.355 638.992C883.244 639.717 886.014 641.097 888.877 641.704C897.266 643.485 904.756 641.578 913.026 640.947L912 642.035C907.211 642.677 902.241 643.158 897.565 644.418C889.674 646.545 882.784 650.177 875.658 654.033C877.374 649.13 879.345 644.096 880.355 638.992Z"/>
	<path fill="#46C486" transform="scale(0.488281 0.488281)" d="M857.158 697.6C862.547 698.796 868.455 699.449 873.569 701.524L874.316 701.722C876.406 702.234 878.746 702.126 880.903 702.41L897.685 704.64L941.103 712.164C946.57 713.079 953.459 713.142 958.497 715.315C953.21 715.639 947.048 714.242 941.75 713.534L892.522 705.751C886.554 704.663 879.563 702.652 873.557 702.616L872.911 703.574C871.716 699.52 860.071 700.485 856.59 698.488L857.158 697.6Z"/>
	<path fill="#49B6EA" transform="scale(0.488281 0.488281)" d="M934.82 640.927C937.9 641.7 941.452 641.379 944.627 641.389L963.941 641.463L943.427 701.467C934.645 696.027 922.196 690.62 911.879 689.332C906.311 688.637 900.455 688.981 894.849 689.033C912.664 677.808 924.463 658.694 934.82 640.927Z"/>
	<path fill="#1DAA69" transform="scale(0.488281 0.488281)" d="M813.751 628.546C816.448 642.773 820.153 655.759 826.268 668.902C832.238 679.06 839.673 689.238 851.72 692.356C853.367 692.783 855.22 693.172 856.75 692.182C858.256 691.208 859.633 689.687 861 688.516L870.029 681.341C880.3 673.768 891.239 667.398 902 660.58L914.564 652.78C916.19 651.835 917.634 650.672 919.475 650.185C915.776 653.536 911.031 656.1 906.841 658.812L879.591 676.343C871.579 681.754 864.218 688.599 856.058 693.618L855.219 697.022C851.628 712.56 832.212 733.612 819.549 743.134L817.555 742.963C812.654 742.813 807.647 743.494 802.808 744.219C806.501 740.232 808.993 735.819 810.858 730.721C816.008 716.649 812.661 703.186 806.54 690.086L794.248 669.917L793.401 668.267C795.482 664.297 796.877 660.038 798.709 655.953C801.185 650.436 804.201 645.2 807.128 639.917C809.227 636.128 811.166 632.027 813.751 628.546Z"/>
	<path fill="#010000" transform="scale(0.488281 0.488281)" d="M817.555 742.963L817.707 742.279C827.597 733.039 837.146 723.552 844.815 712.321C847.16 708.888 849.356 705.295 851.331 701.634C852.328 699.785 853.778 695.182 855.04 694C855.304 693.752 855.718 693.746 856.058 693.618L855.219 697.022C851.628 712.56 832.212 733.612 819.549 743.134L817.555 742.963Z"/>
	<path fill="#1DAA69" transform="scale(0.488281 0.488281)" d="M856.76 697.152C862.18 696.533 867.643 696.169 872.986 695.034C877.924 693.985 882.586 692.223 887.412 690.776C884.79 692.383 881.838 693.501 879.293 695.166C877.075 696.618 875.015 699.338 873.569 701.524C868.455 699.449 862.547 698.796 857.158 697.6L856.59 698.488C860.071 700.485 871.716 699.52 872.911 703.574C873.923 711.717 877.956 717.691 884.362 722.616C894.542 730.44 908.066 732.536 920.537 731.91C907.535 742.787 894.411 752.795 879.698 761.299C873.96 764.615 867.693 767.088 862.048 770.481C855.076 761.862 845.568 751.701 835.28 747.226C830.28 745.051 824.886 744.069 819.549 743.134C832.212 733.612 851.628 712.56 855.219 697.022L856.76 697.152Z"/>
	<path fill="#7ACFF0" transform="scale(0.488281 0.488281)" d="M150.06 214.755L283.013 214.909C280.003 229.618 281.604 244.972 290.007 257.679C292.366 261.246 295.261 264.495 298.198 267.593L287.931 275.635C269.025 292.378 251.014 310.947 235.621 330.989L222.205 349.095C219.462 353.036 216.934 357.268 213.994 361.051L204.592 376.695L200.304 384.618C199.998 385.187 199.399 386.721 198.928 387.109L60.6427 387.12L68.576 361.183C79.6202 331.898 91.1606 301.905 108.048 275.374C113.717 264.796 120.524 254.875 127.367 245.034C134.58 234.66 141.872 224.39 150.06 214.755Z"/>
	<path fill="#FEFEFE" transform="scale(0.488281 0.488281)" d="M154.563 276.347C158.032 275.27 162.54 274.047 165.29 271.602C169.229 268.099 171.573 259.612 173.389 254.719C174.31 252.24 175.017 249.787 176.925 247.874C178.473 247.302 178.771 247.34 180.409 247.626C182.497 249.867 183.239 252.828 184.207 255.67C185.705 260.068 187.22 264.734 189.604 268.75C192.03 272.835 196.356 274.539 200.746 275.73L201.417 275.906L201.93 276.178C205.808 278.208 210.577 279.219 213.774 282.25C214.233 284.052 214.284 284.248 213.647 286.111C207.134 292.344 195.4 291.245 189.964 299C186.666 303.705 184.371 319.314 180.227 321.854C179.565 322.26 178.501 322.043 177.75 322.033C174.995 320.713 174.036 317.211 173.084 314.499C170.494 307.121 168.878 298.15 161.239 294.356C157.132 292.316 143.455 289.397 142.167 284.898C141.923 284.046 142.318 283.094 142.513 282.25C145.704 278.848 150.409 278.124 154.563 276.347Z"/>
	<path fill="#49B6EA" transform="scale(0.488281 0.488281)" d="M68.576 361.183L213.994 361.051L204.592 376.695L200.304 384.618C199.998 385.187 199.399 386.721 198.928 387.109L60.6427 387.12L68.576 361.183Z"/>
	<path fill="#49B6EA" transform="scale(0.488281 0.488281)" d="M150.06 214.755L283.013 214.909C280.003 229.618 281.604 244.972 290.007 257.679C292.366 261.246 295.261 264.495 298.198 267.593L287.931 275.635C285.67 274.984 283.212 275.246 280.874 275.281L269.319 275.377L218.576 275.711C212.992 275.793 206.916 275.249 201.417 275.906L200.746 275.73C196.356 274.539 192.03 272.835 189.604 268.75C187.22 264.734 185.705 260.068 184.207 255.67C183.239 252.828 182.497 249.867 180.409 247.626C178.771 247.34 178.473 247.302 176.925 247.874C175.017 249.787 174.31 252.24 173.389 254.719C171.573 259.612 169.229 268.099 165.29 271.602C162.54 274.047 158.032 275.27 154.563 276.347C152.08 275.397 148.2 275.881 145.499 275.872L119.714 275.839C116.51 275.844 110.895 276.534 108.048 275.374C113.717 264.796 120.524 254.875 127.367 245.034C134.58 234.66 141.872 224.39 150.06 214.755Z"/>
	<path fill="#46C486" transform="scale(0.488281 0.488281)" d="M298.198 267.593C303.461 273.081 308.722 276.993 315.377 280.631L312.302 288.892C305.394 315.613 301.707 342.222 308.155 369.452C309.303 374.299 310.527 379.862 312.737 384.333C317.399 400.675 327.568 414.773 338.489 427.469C318.162 454.528 304.801 488.892 300.879 522.504L280.946 522.447C267.921 522.451 254.967 522.212 245.045 532.25C241.441 535.895 239.032 540.676 238.113 545.715C237.262 550.381 237.6 555.368 237.593 560.102L237.568 583.618L237.541 669.043L236.874 669.14C226.072 677.572 219.939 687.196 215.158 699.886C210.625 694.333 206.656 685.399 204.068 678.634C202.986 675.805 202.546 672.551 200.819 670.056C206.194 660.261 209.58 651.862 211.36 640.784L212.504 625.552C212.566 623.462 212.844 621.171 212.25 619.158L211.531 619.034C207.358 618.513 188.991 631.436 184.823 634.582C174.605 644.032 168.818 654.189 164.778 667.353L163.886 677.291C161.316 672.915 158.427 668.492 154.877 664.838C146.149 655.854 133.769 649.944 122.276 645.371L124.627 644.288C125.854 644.574 127.857 643.962 129.113 643.695C134.596 642.532 140.013 639.934 145.519 639.278L151.072 638.268C149.062 632.392 147.372 626.118 144.619 620.547L129.919 585.413L131.55 584.918C133.052 576.593 137.253 568.631 138.937 560.341L153.922 537.828L157.004 511.559L162.295 484.031L171.55 450.376C178.721 428.465 188.307 407.533 198.928 387.109C199.399 386.721 199.998 385.187 200.304 384.618L204.592 376.695L213.994 361.051C216.934 357.268 219.462 353.036 222.205 349.095L235.621 330.989C251.014 310.947 269.025 292.378 287.931 275.635L298.198 267.593Z"/>
	<path fill="#1E9D63" transform="scale(0.488281 0.488281)" d="M211.36 640.784C218.17 646.199 223.48 652.558 228.867 659.335C231.492 662.636 233.847 666.199 236.874 669.14C226.072 677.572 219.939 687.196 215.158 699.886C210.625 694.333 206.656 685.399 204.068 678.634C202.986 675.805 202.546 672.551 200.819 670.056C206.194 660.261 209.58 651.862 211.36 640.784Z"/>
	<path fill="#1DAA69" transform="scale(0.488281 0.488281)" d="M298.198 267.593C303.461 273.081 308.722 276.993 315.377 280.631L312.302 288.892C309.376 290.398 306.975 292.799 304.49 294.929L290.831 307.54C247.571 348.956 214.927 402.269 196.688 459.25C189.495 481.722 184.826 504.944 182.048 528.367C179.6 549.005 178.435 568.933 179.807 589.716L182.816 620.042C183.433 624.857 184.515 629.749 184.823 634.582C174.605 644.032 168.818 654.189 164.778 667.353L163.886 677.291C161.316 672.915 158.427 668.492 154.877 664.838C146.149 655.854 133.769 649.944 122.276 645.371L124.627 644.288C125.854 644.574 127.857 643.962 129.113 643.695C134.596 642.532 140.013 639.934 145.519 639.278L151.072 638.268C149.062 632.392 147.372 626.118 144.619 620.547L129.919 585.413L131.55 584.918C133.052 576.593 137.253 568.631 138.937 560.341L153.922 537.828L157.004 511.559L162.295 484.031L171.55 450.376C178.721 428.465 188.307 407.533 198.928 387.109C199.399 386.721 199.998 385.187 200.304 384.618L204.592 376.695L213.994 361.051C216.934 357.268 219.462 353.036 222.205 349.095L235.621 330.989C251.014 310.947 269.025 292.378 287.931 275.635L298.198 267.593Z"/>
	<path fill="#46C486" transform="scale(0.488281 0.488281)" d="M152.754 636.81L157.734 637.413C158.344 641.549 162.53 654.4 161.533 657.273L160.812 657.955L158.35 651.314L157.987 650.503L156.985 648.003L155.991 645.503L154.987 643.003L152.754 636.81Z"/>
	<path fill="#7ACFF0" transform="scale(0.488281 0.488281)" d="M142.872 610.688C143.292 609.925 143.806 608.68 144.529 608.184L153.182 603.538L157.734 637.413L152.754 636.81C150.594 632.252 148.984 627.234 147.185 622.5C145.712 618.621 143.735 614.746 142.872 610.688Z"/>
	<path fill="#8BE382" transform="scale(0.488281 0.488281)" d="M153.922 537.828L171.748 522.165C172.572 528.574 172.699 534.912 172.988 541.355C173.828 560.081 173.395 579.105 161.483 594.684C159.148 597.737 156.231 601.224 153.182 603.538L144.529 608.184C143.806 608.68 143.292 609.925 142.872 610.688L142.245 609C141.462 607.609 141.979 608.898 141.493 607.565L136.667 596.745L131.55 584.918C133.052 576.593 137.253 568.631 138.937 560.341L153.922 537.828Z"/>
	<path fill="#1DAA69" transform="scale(0.488281 0.488281)" d="M706.234 280.095C712.016 276.893 717.252 272.695 722.272 268.426L733.04 275.593C740.651 275.046 748.855 275.805 756.537 275.793L873.936 275.615L904.828 275.584C907.705 275.576 913.553 276.274 915.882 274.949C919.829 280.671 922.913 287.237 926.118 293.404C937.467 315.245 946.902 337.694 954.851 360.983L962.306 386.151C972.336 421.345 977.683 458.546 979.484 495.055L980.008 517.49C980.057 544.045 977.709 570.754 973.403 596.939C970.95 611.855 968.101 626.917 963.941 641.463L944.627 641.389C941.452 641.379 937.9 641.7 934.82 640.927C933.22 640.249 931.646 640.344 929.944 640.343C924.016 640.339 917.765 642.493 912 642.035L913.026 640.947C904.756 641.578 897.266 643.485 888.877 641.704C886.014 641.097 883.244 639.717 880.355 638.992C879.345 644.096 877.374 649.13 875.658 654.033C874.084 655.895 872.562 657.719 870.751 659.362C868.158 662.59 865.459 665.803 863.2 669.277C862.53 670.307 860.926 673.876 860.048 674.328C859.697 670.15 859.244 666.171 858.273 662.088C854.377 648.769 847.913 639.779 838.326 630.041C831.002 623.296 823.356 617.53 815.409 611.562C814.114 610.589 811.151 607.725 809.775 607.502L813.751 628.546C811.166 632.027 809.227 636.128 807.128 639.917C804.201 645.2 801.185 650.436 798.709 655.953C796.877 660.038 795.482 664.297 793.401 668.267C790.737 665.642 789.167 661.968 786.637 659.116L787.01 549.571C787.003 541.043 786.694 533.412 779.968 527.046C777.162 524.391 773.324 522.277 769.521 521.515C764.064 520.422 757.489 521.089 751.91 521.104L719.042 521.208C712.26 490.419 703.292 459.43 686.421 432.496L677.631 420.26C690.34 409.979 700.363 398.827 707.836 384.175C723.276 353.903 719.918 320.242 709.809 288.904L706.234 280.095Z"/>
	<path fill="#1E9D63" transform="scale(0.488281 0.488281)" d="M869.299 603.062C873.009 606.424 877.027 610.487 881.706 612.444C882.503 610.17 883.34 609.069 885.528 608.006C884.328 612.228 884.136 616.623 883.787 620.978C882.727 625.998 881.302 631.904 881.079 636.994L880.842 638.227L880.355 638.992C879.345 644.096 877.374 649.13 875.658 654.033C874.084 655.895 872.562 657.719 870.751 659.362C868.158 662.59 865.459 665.803 863.2 669.277C862.53 670.307 860.926 673.876 860.048 674.328C859.697 670.15 859.244 666.171 858.273 662.088C859.819 659.592 858.907 656.392 859.429 653.497L868.716 608.5C869.132 606.635 869.222 604.97 869.299 603.062Z"/>
	<path fill="#010000" transform="scale(0.488281 0.488281)" d="M881.706 612.444C882.503 610.17 883.34 609.069 885.528 608.006C884.328 612.228 884.136 616.623 883.787 620.978C882.727 625.998 881.302 631.904 881.079 636.994L880.842 638.227L880.355 638.992C879.345 644.096 877.374 649.13 875.658 654.033C874.084 655.895 872.562 657.719 870.751 659.362C871.507 655.649 874.17 651.656 875.54 648.042C878.025 641.485 879.034 634.802 880.281 627.947C881.168 623.074 882.416 617.378 881.706 612.444Z"/>
	<path fill="#8BE382" transform="scale(0.488281 0.488281)" d="M926.373 512.565C927.494 511.568 928.524 510.502 929.938 509.938L930.506 510.929C928.325 514.658 926.95 518.925 925.025 522.811C918.028 536.937 911.237 550.862 905.394 565.518C902.294 573.293 899.887 581.795 896.107 589.231L896.861 589.784C895.784 590.047 895.241 590.122 894.362 590.83C892.636 596.097 890.304 604.658 885.528 608.006C883.34 609.069 882.503 610.17 881.706 612.444C877.027 610.487 873.009 606.424 869.299 603.062C850.104 580.476 848.988 550.012 844.294 522.172C853.423 527.81 861.597 534.48 869.495 541.696L866.875 518.444L898.093 518.232L910.326 518.076C912.296 518.065 914.485 517.748 916.225 518.809C919.457 517.668 923.139 514.302 926.373 512.565Z"/>
	<path fill="#46C486" transform="scale(0.488281 0.488281)" d="M851.096 531.25L851.53 531.509C852.931 532.801 854.13 535.683 855.111 537.398C860.916 547.542 865.289 558.474 869.296 569.423C872.278 577.574 875.175 585.714 877.426 594.106C878.796 599.213 880.666 604.966 880.31 610.25L879.846 610.193C878.733 608.902 878.658 605.752 878.137 604.02L869.149 574.505L857.842 545.63C855.751 540.948 852.672 536.048 851.096 531.25Z"/>
	<path fill="#46C486" transform="scale(0.488281 0.488281)" d="M916.225 518.809C919.457 517.668 923.139 514.302 926.373 512.565C916.432 530.848 907.008 549.36 900.15 569.079C897.671 576.207 895.847 583.483 893.927 590.772L892.75 592.678C891.571 587.159 892.437 581.347 890.778 575.902C889.81 572.728 888.635 569.686 887.136 566.721C886.144 564.76 884.269 562.742 883.822 560.637C889.577 541.944 900.434 529.944 916.225 518.809Z"/>
	<path fill="#7ACFF0" transform="scale(0.488281 0.488281)" d="M866.875 518.444L898.093 518.232L910.326 518.076C912.296 518.065 914.485 517.748 916.225 518.809C900.434 529.944 889.577 541.944 883.822 560.637C879.788 553.801 874.908 547.488 869.495 541.696L866.875 518.444Z"/>
	<path fill="#7ACFF0" transform="scale(0.488281 0.488281)" d="M896.861 589.784L896.107 589.231C899.887 581.795 902.294 573.293 905.394 565.518C911.237 550.862 918.028 536.937 925.025 522.811C926.95 518.925 928.325 514.658 930.506 510.929L932.149 517.872C936.01 516.63 942.68 517.49 946.861 517.503L980.008 517.49C980.057 544.045 977.709 570.754 973.403 596.939C970.95 611.855 968.101 626.917 963.941 641.463L944.627 641.389C941.452 641.379 937.9 641.7 934.82 640.927C933.22 640.249 931.646 640.344 929.944 640.343C924.016 640.339 917.765 642.493 912 642.035L913.026 640.947C904.756 641.578 897.266 643.485 888.877 641.704C886.014 641.097 883.244 639.717 880.355 638.992L880.842 638.227L881.079 636.994C881.302 631.904 882.727 625.998 883.787 620.978C884.136 616.623 884.328 612.228 885.528 608.006C890.304 604.658 892.636 596.097 894.362 590.83C895.241 590.122 895.784 590.047 896.861 589.784Z"/>
	<path fill="#46C486" transform="scale(0.488281 0.488281)" d="M896.861 589.784L896.107 589.231C899.887 581.795 902.294 573.293 905.394 565.518C911.237 550.862 918.028 536.937 925.025 522.811C926.95 518.925 928.325 514.658 930.506 510.929L932.149 517.872C935.614 536.643 936.936 559.532 925.415 575.984C920.246 583.365 912.59 587.576 903.835 589.184L896.861 589.784Z"/>
	<path fill="#46C486" transform="scale(0.488281 0.488281)" d="M883.787 620.978L884.75 621.213C891.518 614.219 898.412 605.954 907.75 602.473L908.436 602.213C927.016 595.427 946.788 603.61 965.386 604.877L964.793 605.275C960.599 608.147 957.016 611.99 953.31 615.451C942.047 625.97 928.831 638.303 913.026 640.947C904.756 641.578 897.266 643.485 888.877 641.704C886.014 641.097 883.244 639.717 880.355 638.992L880.842 638.227L881.079 636.994C881.302 631.904 882.727 625.998 883.787 620.978Z"/>
	<path fill="#8BE382" transform="scale(0.488281 0.488281)" d="M881.079 636.994C896.072 627.883 911.583 620.901 927.927 614.582C939.228 610.213 950.742 605.746 962.964 605.365C958.247 607.758 952.775 608.839 947.794 610.734L909.117 626.057L889.883 634.637C887.136 635.87 883.797 637.868 880.842 638.227L881.079 636.994Z"/>
	<path fill="#7ACFF0" transform="scale(0.488281 0.488281)" d="M962.306 386.151C972.336 421.345 977.683 458.546 979.484 495.055L980.008 517.49L946.861 517.503C942.68 517.49 936.01 516.63 932.149 517.872L930.506 510.929L929.938 509.938C928.524 510.502 927.494 511.568 926.373 512.565C923.139 514.302 919.457 517.668 916.225 518.809C914.485 517.748 912.296 518.065 910.326 518.076L898.093 518.232L866.875 518.444L862.621 494.575L856.534 467.881C851.992 451.124 846.554 434.317 839.96 418.25C835.601 407.63 830.375 397.281 825.183 387.048L930.674 387.028L954.882 386.994C956.567 386.983 959.966 387.416 961.5 386.945C961.861 386.834 962.037 386.415 962.306 386.151Z"/>
	<path fill="#FEFEFE" transform="scale(0.488281 0.488281)" d="M904.962 401.316C907.595 405.698 909.351 410.71 911.566 415.326C913.122 418.568 914.708 422.236 917.072 424.988C920.442 428.913 925.614 431.063 930.228 433.129L944.653 439.645C939.304 442.572 933.609 445.082 928 447.476C925.106 448.711 920.748 449.912 918.243 451.759C915.516 453.768 907.312 471.945 905.25 476.054C904.713 476.565 905.04 476.313 904.228 476.75L897.255 462.928C895.973 460.298 894.786 457.254 893.111 454.854C891.442 452.463 888.176 450.854 885.715 449.439L866.114 439.377L881.016 432.364C884.801 430.59 889.683 428.647 892.467 425.488C894.518 423.161 895.951 419.756 897.331 416.997L904.962 401.316Z"/>
	<path fill="#49B6EA" transform="scale(0.488281 0.488281)" d="M862.621 494.575L979.484 495.055L980.008 517.49L946.861 517.503C942.68 517.49 936.01 516.63 932.149 517.872L930.506 510.929L929.938 509.938C928.524 510.502 927.494 511.568 926.373 512.565C923.139 514.302 919.457 517.668 916.225 518.809C914.485 517.748 912.296 518.065 910.326 518.076L898.093 518.232L866.875 518.444L862.621 494.575Z"/>
	<path fill="#7ACFF0" transform="scale(0.488281 0.488281)" d="M915.882 274.949C919.829 280.671 922.913 287.237 926.118 293.404C937.467 315.245 946.902 337.694 954.851 360.983L962.306 386.151C962.037 386.415 961.861 386.834 961.5 386.945C959.966 387.416 956.567 386.983 954.882 386.994L930.674 387.028L825.183 387.048L810.435 361.353C788.842 328.954 763.952 299.533 733.04 275.593C740.651 275.046 748.855 275.805 756.537 275.793L873.936 275.615L904.828 275.584C907.705 275.576 913.553 276.274 915.882 274.949Z"/>
	<path fill="#FEFEFE" transform="scale(0.488281 0.488281)" d="M829.423 294.124C832.081 294.219 834.237 294.572 836.605 295.863C839.277 297.32 841.116 299.985 841.905 302.885C842.729 305.914 842.163 309.739 840.562 312.437C838.555 315.82 835.496 317.444 831.788 318.349C828.918 318.519 826.171 318.088 823.75 316.42C821.171 314.642 819.42 311.792 818.813 308.75C818.116 305.254 818.94 301.277 821.056 298.386C823.16 295.513 826.112 294.708 829.423 294.124Z"/>
	<path fill="#49B6EA" transform="scale(0.488281 0.488281)" d="M954.851 360.983L962.306 386.151C962.037 386.415 961.861 386.834 961.5 386.945C959.966 387.416 956.567 386.983 954.882 386.994L930.674 387.028L825.183 387.048L810.435 361.353L954.851 360.983Z"/>
	<path fill="#46C486" transform="scale(0.488281 0.488281)" d="M709.809 288.904C714.533 290.051 719.732 295.366 723.554 298.384C753.906 322.354 777.701 352.585 797.72 385.432C803.745 395.317 808.57 405.843 813.306 416.386C821.144 433.832 827.895 451.783 832.67 470.33C841.939 506.33 844.479 543.272 843.485 580.306L841.344 611.392C840.881 616.308 840.748 621.425 839.675 626.25C839.385 627.556 838.834 628.807 838.326 630.041C831.002 623.296 823.356 617.53 815.409 611.562C814.114 610.589 811.151 607.725 809.775 607.502L813.751 628.546C811.166 632.027 809.227 636.128 807.128 639.917C804.201 645.2 801.185 650.436 798.709 655.953C796.877 660.038 795.482 664.297 793.401 668.267C790.737 665.642 789.167 661.968 786.637 659.116L787.01 549.571C787.003 541.043 786.694 533.412 779.968 527.046C777.162 524.391 773.324 522.277 769.521 521.515C764.064 520.422 757.489 521.089 751.91 521.104L719.042 521.208C712.26 490.419 703.292 459.43 686.421 432.496L677.631 420.26C690.34 409.979 700.363 398.827 707.836 384.175C723.276 353.903 719.918 320.242 709.809 288.904Z"/>
	<path fill="#7ACFF0" transform="scale(0.488281 0.488281)" d="M256.393 119.022C292.37 95.5667 331.555 76.5109 372.5 63.4658C447.188 39.6705 530.494 35.0463 607.242 51.3418C643.829 59.11 679.191 71.0168 712.983 87.1008L737.147 99.8337C747.963 105.602 760.031 111.663 769.665 119.301L786.314 130.735C792.25 134.844 798.332 138.907 803.696 143.763C812.252 150.207 820.285 157.585 828.166 164.833C844.664 180.007 861.503 196.503 874.456 214.876C889.897 233.613 904.166 253.64 915.882 274.949C913.553 276.274 907.705 275.576 904.828 275.584L873.936 275.615L756.537 275.793C748.855 275.805 740.651 275.046 733.04 275.593L722.272 268.426C717.252 272.695 712.016 276.893 706.234 280.095C703.06 274.599 701.448 268.6 697.903 263.191C695.267 257.854 691.593 252.548 688.298 247.587C677.482 231.308 665.329 217.652 651.159 204.296C646.22 199.606 640.561 196.491 635.448 192.205C630.884 187.834 623.988 184.407 618.486 181.295C569.224 153.042 504.647 147.702 450.379 162.443C437.115 166.046 424.102 170.557 411.664 176.433C407.217 178.534 402.391 180.663 398.324 183.419C394.069 186.03 389.528 188.636 385.66 191.794L366.482 206.509C350.485 221.982 333.921 241.119 324.775 261.482L315.377 280.631C308.722 276.993 303.461 273.081 298.198 267.593C295.261 264.495 292.366 261.246 290.007 257.679C281.604 244.972 280.003 229.618 283.013 214.909L150.06 214.755L171.278 190.39C183.041 177.609 195.698 165.689 209.019 154.549C213.315 150.957 217.522 147.051 222.079 143.805L256.393 119.022Z"/>
	<path fill="#49B6EA" transform="scale(0.488281 0.488281)" d="M627.888 118.708C632.299 120.206 639.163 119.398 643.887 119.412L670.941 119.544L737.244 119.711C747.943 119.669 759.01 120.138 769.665 119.301L786.314 130.735C792.25 134.844 798.332 138.907 803.696 143.763C797.504 144.406 791.022 144.044 784.792 144.04L751.566 144.008L645.06 143.982L618.181 144.032C612.732 144.047 606.992 143.784 601.582 144.426C603.503 139.752 606.128 132.672 609.563 128.997C611.047 127.409 613.606 126.458 615.5 125.442L627.888 118.708Z"/>
	<path fill="#C96D37" transform="scale(0.488281 0.488281)" d="M283.013 214.909C286.248 201.892 293.693 190.004 304.526 181.99C316.366 173.229 332.572 168.383 347.292 170.766C362.914 173.295 375.208 179.84 385.66 191.794L366.482 206.509C350.485 221.982 333.921 241.119 324.775 261.482L315.377 280.631C308.722 276.993 303.461 273.081 298.198 267.593C295.261 264.495 292.366 261.246 290.007 257.679C281.604 244.972 280.003 229.618 283.013 214.909Z"/>
	<path fill="#F6CE88" transform="scale(0.488281 0.488281)" d="M324.775 261.482L321.392 259.094C313.704 253.021 308.937 245.499 307.841 235.678C306.84 226.716 309.674 216.731 315.379 209.716C321.298 202.437 329.996 197.595 339.375 196.785C350.005 195.866 358.604 199.759 366.482 206.509C350.485 221.982 333.921 241.119 324.775 261.482Z"/>
	<path fill="#C96D37" transform="scale(0.488281 0.488281)" d="M635.448 192.205C644.923 179.673 657.152 171.036 673 169.019C688.624 167.03 704.379 171.474 716.735 181.195C727.133 189.376 734.287 201.597 737.255 214.416C740.469 230.332 738.424 245.552 729.411 259.208L722.272 268.426C717.252 272.695 712.016 276.893 706.234 280.095C703.06 274.599 701.448 268.6 697.903 263.191C695.267 257.854 691.593 252.548 688.298 247.587C677.482 231.308 665.329 217.652 651.159 204.296C646.22 199.606 640.561 196.491 635.448 192.205Z"/>
	<path fill="#F6CE88" transform="scale(0.488281 0.488281)" d="M651.159 204.296C659.952 197.405 669.445 194.686 680.529 196.09C689.749 197.258 698.492 202.494 704.092 209.866C710.245 217.965 712.954 228.824 711.663 238.883C710.433 248.46 704.987 256.855 697.903 263.191C695.267 257.854 691.593 252.548 688.298 247.587C677.482 231.308 665.329 217.652 651.159 204.296Z"/>
	<path fill="#49B6EA" transform="scale(0.488281 0.488281)" d="M256.393 119.022C261.758 119.798 267.428 119.471 272.85 119.483L300.296 119.508L395.592 119.459C395.761 123.639 397.199 126.325 400.304 129.159C402.345 131.022 404.768 131.882 407.537 131.722C410.886 131.529 414.375 129.614 416.489 127.042C418.119 125.058 418.706 122.832 419.301 120.385L419.591 119.965C419.626 119.933 420.42 119.462 420.5 119.445C423.776 118.752 428.969 119.456 432.407 119.461L466.61 119.506L566.248 119.544L579.247 125.873C580.68 126.524 583.615 127.349 584.66 128.414C585.284 129.051 586.028 131.11 586.46 132L591.879 143.563C589.434 144.306 586.597 144.002 584.051 144.004L571.05 144.004L520.63 143.958L292.335 143.893L242.405 144.057L229.776 144.186C227.428 144.228 224.749 144.571 222.499 143.914L222.079 143.805L256.393 119.022Z"/>
	<path fill="#49B6EA" transform="scale(0.488281 0.488281)" d="M737.255 214.416C742.801 215.313 748.659 214.936 754.269 214.941L782.563 214.944L874.456 214.876C889.897 233.613 904.166 253.64 915.882 274.949C913.553 276.274 907.705 275.576 904.828 275.584L873.936 275.615L756.537 275.793C748.855 275.805 740.651 275.046 733.04 275.593L722.272 268.426L729.411 259.208C738.424 245.552 740.469 230.332 737.255 214.416Z"/>
	<path fill="#7ACFF0" transform="scale(0.488281 0.488281)" d="M256.393 119.022C292.37 95.5667 331.555 76.5109 372.5 63.4658C447.188 39.6705 530.494 35.0463 607.242 51.3418C643.829 59.11 679.191 71.0168 712.983 87.1008L737.147 99.8337C747.963 105.602 760.031 111.663 769.665 119.301C759.01 120.138 747.943 119.669 737.244 119.711L670.941 119.544L643.887 119.412C639.163 119.398 632.299 120.206 627.888 118.708L615.5 125.442C613.606 126.458 611.047 127.409 609.563 128.997C606.128 132.672 603.503 139.752 601.582 144.426C601.333 144.615 600.939 145.801 600.807 146.104L597.389 154.619L591.879 143.563L586.46 132C586.028 131.11 585.284 129.051 584.66 128.414C583.615 127.349 580.68 126.524 579.247 125.873L566.248 119.544L466.61 119.506L432.407 119.461C428.969 119.456 423.776 118.752 420.5 119.445C420.42 119.462 419.626 119.933 419.591 119.965L419.301 120.385C418.706 122.832 418.119 125.058 416.489 127.042C414.375 129.614 410.886 131.529 407.537 131.722C404.768 131.882 402.345 131.022 400.304 129.159C397.199 126.325 395.761 123.639 395.592 119.459L300.296 119.508L272.85 119.483C267.428 119.471 261.758 119.798 256.393 119.022Z"/>
	<path fill="#FEFEFE" transform="scale(0.488281 0.488281)" d="M395.592 119.459C396.748 115.348 398.247 111.523 402.303 109.386C405.161 107.881 408.462 107.638 411.504 108.767C414.314 109.81 416.934 112.244 418.086 115.02C418.792 116.721 419.039 118.576 419.301 120.385C418.706 122.832 418.119 125.058 416.489 127.042C414.375 129.614 410.886 131.529 407.537 131.722C404.768 131.882 402.345 131.022 400.304 129.159C397.199 126.325 395.761 123.639 395.592 119.459Z"/>
	<path fill="#FEFEFE" transform="scale(0.488281 0.488281)" d="M566.248 119.544C564.117 117.877 561.716 116.586 559.385 115.22L575.06 108.25C577.625 107.168 582.201 106.039 584.213 104.101C585.554 102.809 586.9 98.3325 587.787 96.4758C590.622 90.5382 593.546 84.4857 597.079 78.9368L606.539 98.42C607.242 99.8245 608.178 102.541 609.192 103.66C610.278 104.858 613.881 106.094 615.387 106.777L634.078 115.206L627.888 118.708L615.5 125.442C613.606 126.458 611.047 127.409 609.563 128.997C606.128 132.672 603.503 139.752 601.582 144.426C601.333 144.615 600.939 145.801 600.807 146.104L597.389 154.619L591.879 143.563L586.46 132C586.028 131.11 585.284 129.051 584.66 128.414C583.615 127.349 580.68 126.524 579.247 125.873L566.248 119.544Z"/>
	<path fill="#FB8F04" transform="scale(0.488281 0.488281)" d="M398.324 183.419C402.391 180.663 407.217 178.534 411.664 176.433C424.102 170.557 437.115 166.046 450.379 162.443C504.647 147.702 569.224 153.042 618.486 181.295C623.988 184.407 630.884 187.834 635.448 192.205C640.561 196.491 646.22 199.606 651.159 204.296C665.329 217.652 677.482 231.308 688.298 247.587C691.593 252.548 695.267 257.854 697.903 263.191C701.448 268.6 703.06 274.599 706.234 280.095L709.809 288.904C719.918 320.242 723.276 353.903 707.836 384.175C700.363 398.827 690.34 409.979 677.631 420.26L686.421 432.496C665.917 446.76 644.093 459.75 620.787 468.889C568.888 489.033 510.48 494.068 455.764 484.268C438.045 481.094 419.874 476.333 403.252 469.339C397.841 466.529 391.945 464.421 386.436 461.741C368.219 452.88 352.659 441.961 338.489 427.469C327.568 414.773 317.399 400.675 312.737 384.333C310.527 379.862 309.303 374.299 308.155 369.452C301.707 342.222 305.394 315.613 312.302 288.892L315.377 280.631L324.775 261.482C333.921 241.119 350.485 221.982 366.482 206.509L385.66 191.794C389.528 188.636 394.069 186.03 398.324 183.419Z"/>
	<path fill="#086DAD" transform="scale(0.488281 0.488281)" d="M603.161 284.578C608.791 283.946 614.381 284.476 619.507 287.044C625.436 290.015 629.669 295.557 631.542 301.851C633.627 308.855 632.98 316.075 629.521 322.53C625.474 330.081 619.576 333.475 611.714 335.869C608.196 336.291 604.193 336.353 600.781 335.301L600 335.046C598.125 334.447 596.33 333.765 594.609 332.795C588.851 329.549 584.412 324.039 582.61 317.65C580.642 310.671 581.236 303.486 584.942 297.157C589.124 290.016 595.35 286.456 603.161 284.578Z"/>
	<path fill="#FEFEFE" transform="scale(0.488281 0.488281)" d="M610.593 291.54C612.213 291.512 613.741 291.526 615.307 292.002C618.083 292.845 620.272 294.658 621.59 297.254C622.806 299.647 623.125 302.641 622.208 305.194C621.047 308.427 618.548 309.823 615.623 311.236C613.614 311.462 611.721 311.539 609.75 310.987C607.153 310.26 605.002 308.282 603.814 305.889C602.532 303.306 602.497 299.903 603.618 297.25C604.959 294.08 607.602 292.784 610.593 291.54Z"/>
	<path fill="#086DAD" transform="scale(0.488281 0.488281)" d="M414.145 283.618C419.924 283.053 425.463 283.883 430.569 286.758C436.768 290.249 441.274 296.46 443.011 303.321C444.796 310.374 443.447 317.137 439.816 323.377C435.825 330.238 429.836 333.525 422.357 335.483C416.246 336.272 410.7 335.421 405.25 332.471C399.174 329.182 394.359 323.399 392.453 316.73C390.585 310.192 391.492 302.281 394.991 296.431C399.517 288.866 405.887 285.629 414.145 283.618Z"/>
	<path fill="#FEFEFE" transform="scale(0.488281 0.488281)" d="M419.574 292.117C421.459 291.882 423.522 291.685 425.393 292.105C427.769 292.638 429.711 294.306 430.985 296.328C432.481 298.7 433.067 301.509 432.202 304.252C431.253 307.259 428.871 308.878 426.235 310.293C424.588 310.711 422.96 311.061 421.25 310.82C418.787 310.472 416.761 309.119 415.286 307.158C413.471 304.747 412.899 301.165 413.558 298.25C414.261 295.145 417.004 293.518 419.574 292.117Z"/>
	<path fill="#F6CE88" transform="scale(0.488281 0.488281)" d="M650.596 355.596C657.319 355.497 662.469 355.575 668.5 358.948C674.34 362.213 678.844 367.885 680.541 374.382C682.421 381.578 681.572 389.375 677.634 395.762C673.147 403.04 667.122 406.66 659.006 408.463C655.904 408.777 651.892 408.955 648.848 408.184L648.25 408.021C645.61 407.327 643.232 406.494 640.855 405.127C634.844 401.671 630.21 395.864 628.504 389.112C626.784 382.308 627.214 374.592 631.045 368.529C635.672 361.208 642.271 357.434 650.596 355.596Z"/>
	<path fill="#F6CE88" transform="scale(0.488281 0.488281)" d="M365.515 352.674C372.366 352.176 379.217 353.996 384.75 358.087C390.73 362.51 394.847 369.746 395.854 377.079C396.973 385.235 394.684 393.764 389.654 400.263C384.721 406.637 377.745 409.377 369.952 410.432C363.556 410.505 356.253 408.969 351.046 405.101C344.824 400.479 340.148 392.181 339.177 384.5C338.258 377.233 340.724 369.297 345.198 363.567C350.344 356.978 357.33 353.753 365.515 352.674Z"/>
	<path fill="#C96D37" transform="scale(0.488281 0.488281)" d="M312.737 384.333L313.129 384.621C316.966 387.544 319.751 392.393 323.153 395.9C331.964 404.983 341.499 414.075 351.406 421.956C405.826 465.245 478.222 479.484 546.263 471.093C581.076 466.8 616.873 456.932 647.524 439.619L667 427.491C670.377 425.2 673.993 421.984 677.631 420.26L686.421 432.496C665.917 446.76 644.093 459.75 620.787 468.889C568.888 489.033 510.48 494.068 455.764 484.268C438.045 481.094 419.874 476.333 403.252 469.339C397.841 466.529 391.945 464.421 386.436 461.741C368.219 452.88 352.659 441.961 338.489 427.469C327.568 414.773 317.399 400.675 312.737 384.333Z"/>
	<path fill="#FEFEFE" transform="scale(0.488281 0.488281)" d="M477.264 316.447C496.247 307.366 516.386 305.412 536.367 312.522L545.748 316.519C555.332 322.403 563.433 329.722 570.335 338.598C583.162 355.095 590.512 377.979 587.8 398.906C585.474 416.85 576.119 431.906 561.788 442.807C550.343 451.513 537.45 455.835 523.31 457.785C517.208 458.626 510.172 459.113 504.044 458.241C486.642 455.765 469.963 450.865 457.14 438.141C443.704 424.809 435.76 408.116 435.806 388.984C435.858 367.324 446.565 344.489 461.748 329.352C466.574 324.542 471.534 320.175 477.264 316.447Z"/>
	<path fill="#010000" transform="scale(0.488281 0.488281)" d="M508.792 372.523L513.13 372.677C513.013 380.157 512.212 387.125 516.328 393.801C519.193 398.448 523.755 402.109 529.156 403.273C534.108 404.341 539.287 403.194 543.419 400.319C551.218 394.894 552.143 388.101 553.75 379.458C554.941 378.819 555.074 378.985 556.425 379.25L557.295 380.635C557.486 383.608 556.863 386.937 555.883 389.747C553.533 396.484 548.963 402.261 542.42 405.344C537.633 407.6 531.53 408.503 526.455 406.668C518.777 403.891 514.583 399.59 511.216 392.287C509.954 393.675 509.146 395.479 508.028 397C506.195 399.494 503.802 401.757 501.25 403.504C496.699 406.62 491.467 408.511 485.906 407.344C480.08 406.121 473.334 401.612 470.146 396.605C467.646 392.679 464.286 384.808 465.652 380.108C465.937 379.129 466.293 379.198 467.13 378.726C467.798 378.914 468.365 378.859 468.729 379.508C469.468 380.824 469.579 382.864 469.86 384.365C470.807 389.433 472.388 393.547 476.002 397.353C479.18 400.7 483.691 403.447 488.397 403.555C493.783 403.679 498.341 401.215 502.157 397.55C509.651 390.352 508.643 382.006 508.792 372.523Z"/>
	<path fill="#924E31" transform="scale(0.488281 0.488281)" d="M508.792 372.523C499.596 368.258 491.427 362.241 484.644 354.689C482.177 351.943 479.597 348.862 478.207 345.401C476.886 342.114 476.74 338.187 478.222 334.921C480.46 329.991 485.598 327.247 490.502 325.61C497.372 323.316 504.556 322.971 511.738 322.98C520.472 322.99 529.89 323.555 537.84 327.539C540.998 329.121 544.226 331.806 545.425 335.25C546.852 339.346 545.494 343.758 543.441 347.365C538.872 355.393 522.668 371.039 513.452 372.696L513.13 372.677L508.792 372.523Z"/>
	<path fill="#F8AD3D" transform="scale(0.488281 0.488281)" d="M398.324 183.419C402.391 180.663 407.217 178.534 411.664 176.433C424.102 170.557 437.115 166.046 450.379 162.443C504.647 147.702 569.224 153.042 618.486 181.295C588.385 211.17 564.465 246.318 552.51 287.25C549.687 296.916 547.955 306.719 545.748 316.519L536.367 312.522C516.386 305.412 496.247 307.366 477.264 316.447C476.776 312.074 475.63 307.611 474.791 303.282C467.783 267.138 450.559 233.836 424.2 207.91L407.527 192.43C404.556 189.754 400.356 186.846 398.324 183.419Z"/>
	<path fill="#F7F0C6" transform="scale(0.488281 0.488281)" d="M338.489 427.469C352.659 441.961 368.219 452.88 386.436 461.741C391.945 464.421 397.841 466.529 403.252 469.339C419.874 476.333 438.045 481.094 455.764 484.268C510.48 494.068 568.888 489.033 620.787 468.889C644.093 459.75 665.917 446.76 686.421 432.496C703.292 459.43 712.26 490.419 719.042 521.208L751.91 521.104C757.489 521.089 764.064 520.422 769.521 521.515C773.324 522.277 777.162 524.391 779.968 527.046C786.694 533.412 787.003 541.043 787.01 549.571L786.637 659.116C789.167 661.968 790.737 665.642 793.401 668.267L794.248 669.917L806.54 690.086C812.661 703.186 816.008 716.649 810.858 730.721C808.993 735.819 806.501 740.232 802.808 744.219C807.647 743.494 812.654 742.813 817.555 742.963L819.549 743.134C824.886 744.069 830.28 745.051 835.28 747.226C845.568 751.701 855.076 761.862 862.048 770.481C869.559 780.101 878.506 790.484 884.164 801.293L883.396 801.945L858.106 831.415C855.079 834.736 851.779 838.926 848.234 841.681C821.512 867.785 792.615 890.99 760.706 910.518C685.594 956.485 596.483 980.465 508.5 979.46C473.906 979.064 438.464 975.448 404.723 967.75C366.118 958.942 328.183 944.624 293.075 926.359L268.391 912.623C266.142 911.268 263.003 909.825 261.07 908.103L260.812 907.772C255.081 904.829 249.54 900.719 244.293 896.979C244.35 894.048 243.388 891.266 242.865 888.406C242.142 884.457 242.005 878.836 242.699 874.874L242.816 874.25C243.544 870.034 244.811 865.278 247.786 862.073L246.794 861.344C240.081 856.16 237.241 850.244 236.16 841.935L236.242 826.409L236.98 733.087L237.356 692.377L237.541 669.043L237.568 583.618L237.593 560.102C237.6 555.368 237.262 550.381 238.113 545.715C239.032 540.676 241.441 535.895 245.045 532.25C254.967 522.212 267.921 522.451 280.946 522.447L300.879 522.504C304.801 488.892 318.162 454.528 338.489 427.469Z"/>
	<path fill="#C96D37" transform="scale(0.488281 0.488281)" d="M311.251 755.609C315.234 755.425 318.198 755.361 321.892 757.18C326.035 759.222 329.601 763.195 330.995 767.622C332.305 771.781 331.831 776.782 329.75 780.607C327.157 785.374 323.311 787.986 318.188 789.535C314.716 789.923 310.474 789.927 307.25 788.485C303.152 786.652 299.596 783.325 298.071 779.038C296.337 774.163 296.686 769.105 299.141 764.515C301.729 759.677 306.25 757.233 311.251 755.609Z"/>
	<path fill="#C96D37" transform="scale(0.488281 0.488281)" d="M312.353 710.16C315.446 709.908 318.924 710.317 321.734 711.681C325.815 713.661 329.496 717.298 330.989 721.652C332.519 726.115 332.448 731.085 330.168 735.293C327.36 740.474 322.501 742.893 317.091 744.4C312.836 744.509 309.34 744.219 305.496 742.117C301.614 739.994 298.784 736.199 297.75 731.904C296.706 727.567 297.26 722.305 299.641 718.507C302.591 713.802 307.021 711.237 312.353 710.16Z"/>
	<path fill="#F9C42E" transform="scale(0.488281 0.488281)" d="M312.299 658.64C316.118 658.384 319.686 658.841 323.143 660.582C327.166 662.607 330.552 665.754 331.931 670.131C333.618 675.483 332.966 680.434 330.248 685.278C327.567 690.058 323.832 692.458 318.668 693.959C314.653 694.508 310.705 694.074 307.108 692.11C302.912 689.818 299.695 685.691 298.486 681.078C297.265 676.422 298.022 670.6 300.622 666.542C303.451 662.128 307.288 659.755 312.299 658.64Z"/>
	<path fill="#FEFEFE" transform="scale(0.488281 0.488281)" d="M314.358 665.531L317.75 666.073C320.499 666.895 322.699 669.068 323.893 671.629C325.167 674.364 325.211 677.037 324.114 679.827C322.733 683.34 319.603 684.921 316.318 686.222C314.591 686.087 312.877 685.979 311.283 685.242C308.511 683.96 306.473 681.559 305.563 678.658C304.701 675.907 305.036 673.232 306.533 670.75C308.35 667.737 311.107 666.467 314.358 665.531Z"/>
	<path fill="#CDCA98" transform="scale(0.488281 0.488281)" d="M500.426 788.939L499.613 788.785C496.423 788.224 492.587 788.578 489.321 788.567L468.592 788.543L393.383 788.507L376.419 788.491C373.67 788.489 370.45 788.809 367.768 788.344C365.63 787.973 364.06 786.68 362.75 785C361.571 783.487 361.278 781.619 361.637 779.75C362.055 777.573 363.78 775.732 365.617 774.637C366.272 774.246 367.078 773.778 367.822 773.591C370.653 772.878 374.235 773.124 377.138 773.11L392.609 773.069L450.281 773.06L650.908 773.009L700.378 773.02C708.646 773.024 718.772 771.941 726.837 773.726C729.517 775.631 731.187 777.275 731.681 780.605C731.934 782.307 731.736 783.545 730.685 784.979C729.223 786.972 727.025 788.148 724.588 788.433L522.39 788.966L521.962 787.5C520.764 784.356 518.824 781.749 515.673 780.399C512.948 779.232 509.801 779.18 507.096 780.428C503.678 782.005 502.057 785.062 500.798 788.426L500.426 788.939Z"/>
	<path fill="#CDCA98" transform="scale(0.488281 0.488281)" d="M367.947 719.598L726.457 719.55C728.256 720.81 730.653 722.459 731.322 724.695C731.776 726.211 731.812 728.629 730.951 730.014C729.233 732.777 727.156 734.138 724.076 734.859L457.311 734.611L400.853 734.681L371.5 734.898C369.47 734.845 367.03 734.696 365.29 733.563L364.85 733.25L363.927 732.573C362.481 731.341 361.514 729.148 361.535 727.25C361.557 725.311 362.42 723.359 363.833 722.029C364.975 720.955 366.552 720.275 367.947 719.598Z"/>
	<path fill="#CDCA98" transform="scale(0.488281 0.488281)" d="M371.58 666.209L612.47 666.059L722.75 666.054C724.45 666.092 726.579 666.23 727.97 667.27C729.936 668.741 731.217 670.733 731.432 673.217C731.596 675.114 730.756 677.281 729.505 678.704C727.565 680.911 725.422 681.254 722.625 681.522L489.259 681.542L410.278 681.546C397.064 681.55 383.428 682.23 370.25 681.486C368.745 681.401 367.273 681.083 365.976 680.285C363.775 678.93 362.149 676.967 361.733 674.357C361.482 672.783 361.849 671.069 362.843 669.811C365.423 666.544 367.781 666.605 371.58 666.209Z"/>
	<path fill="#924E31" transform="scale(0.488281 0.488281)" d="M300.879 522.504L299.48 544.463C288.37 544.425 272.545 541.924 264.058 550.459C262.302 552.225 260.791 554.552 260.224 557C259.414 560.495 259.582 564.257 259.573 567.82L259.564 584.432L259.726 632.539L259.812 635.331C258.735 644.725 259.507 654.928 259.504 664.399L259.504 723.558L259.516 792.703C259.518 803.702 258.706 815.389 259.615 826.327C259.896 829.714 260.733 832.726 262.822 835.476C264.799 838.079 267.657 839.96 270.919 840.405C275.863 841.08 281.658 840.54 286.705 840.545L321.824 840.532L444.673 840.485L445.815 841.071L446.536 842.135C445.019 844.276 444.632 847.265 444.028 849.789C443.256 853.008 443.991 855.662 445.75 858.435C447.419 861.066 449.859 863.584 452.146 865.692L324.698 865.941L281.569 865.857C273.871 865.831 265.669 866.308 258.035 865.446C254.238 865.018 251.134 863.789 247.786 862.073L246.794 861.344C240.081 856.16 237.241 850.244 236.16 841.935L236.242 826.409L236.98 733.087L237.356 692.377L237.541 669.043L237.568 583.618L237.593 560.102C237.6 555.368 237.262 550.381 238.113 545.715C239.032 540.676 241.441 535.895 245.045 532.25C254.967 522.212 267.921 522.451 280.946 522.447L300.879 522.504Z"/>
	<path fill="#C96D37" transform="scale(0.488281 0.488281)" d="M338.489 427.469C352.659 441.961 368.219 452.88 386.436 461.741C391.945 464.421 397.841 466.529 403.252 469.339C419.874 476.333 438.045 481.094 455.764 484.268C510.48 494.068 568.888 489.033 620.787 468.889C644.093 459.75 665.917 446.76 686.421 432.496C703.292 459.43 712.26 490.419 719.042 521.208L722.061 542.326L745.519 541.984C749.259 541.977 753.49 541.636 757.151 542.326C758.943 542.663 760.328 543.24 761.639 544.567C762.457 545.395 763.808 547.258 763.937 548.437C764.352 552.244 764.049 556.457 764.055 560.296L764.079 582.206L764.003 635.259L763.975 635.511C762.753 633.488 761.439 631.4 759.59 629.884C757.507 628.176 755.151 627.515 752.5 627.459L647.185 627.392L419.291 627.417L315.077 627.293L285.255 627.288C280.072 627.293 274.362 626.87 269.248 627.604C264.711 628.254 262.175 631.816 259.812 635.331L259.726 632.539L259.564 584.432L259.573 567.82C259.582 564.257 259.414 560.495 260.224 557C260.791 554.552 262.302 552.225 264.058 550.459C272.545 541.924 288.37 544.425 299.48 544.463L300.879 522.504C304.801 488.892 318.162 454.528 338.489 427.469Z"/>
	<path fill="#FEFEFE" transform="scale(0.488281 0.488281)" d="M466.033 564.75C467.192 564.478 468.554 564.552 469.75 564.497L470.491 565.25L470.337 595.25C468.789 595.514 467.704 595.535 466.147 595.334C465.273 592.424 465.814 588.183 465.809 585.126C465.799 578.373 465.518 571.484 466.033 564.75Z"/>
	<path fill="#FEFEFE" transform="scale(0.488281 0.488281)" d="M502.937 564.156C505.047 564.14 507.533 564.262 509.569 564.853C511.077 565.291 512.974 566.152 513.708 567.542L512.06 570.261C510.881 570.402 509.188 569.282 508.006 568.853C506.267 568.222 503.995 568.225 502.193 568.533C499.459 569 496.754 570.963 495.309 573.291C493.345 576.453 492.9 581.09 493.968 584.656C494.75 587.267 496.507 589.558 498.983 590.763C501.9 592.183 505.257 591.996 508.243 590.948L510.75 589.564L511.56 590.25C512.013 591.783 512.413 592.39 511.918 593.94C510.841 594.769 509.913 595.157 508.583 595.481C504.315 596.52 498.462 596.447 494.75 593.927C491.448 591.685 489.562 587.536 488.918 583.69C488.097 578.791 489 573.416 492.061 569.434C494.826 565.837 498.669 564.768 502.937 564.156Z"/>
	<path fill="#FEFEFE" transform="scale(0.488281 0.488281)" d="M593.638 565.504L607.397 565.471C608.981 565.467 610.744 565.132 612.077 566L612.033 569C609.913 570.459 601.424 569.566 598.471 569.574L598.443 577.978C600.719 577.968 607.966 577.276 609.429 578.5L609.456 581C607.691 583.394 601.363 580.902 598.613 582.5L598.488 584.375L598.499 591.84C602.223 591.817 609.284 590.843 612.563 592.25L612.651 595C612.434 595.207 612.272 595.495 612 595.62C611.44 595.877 608.795 595.617 607.98 595.616L593.624 595.605L593.638 565.504Z"/>
	<path fill="#FEFEFE" transform="scale(0.488281 0.488281)" d="M437.572 564.654C441.371 564.659 455.768 563.762 458.178 565.25C458.251 566.468 458.472 567.64 457.86 568.75L442.413 568.747L442.345 578.412C445.489 578.365 452.783 577.372 455.376 578.75L455.414 581.5C453.872 582.878 444.971 582.073 442.431 582.068L442.456 591.661L453.939 591.61C455.337 591.607 457.01 591.327 458.25 592.064C458.322 593.513 458.702 594.359 457.75 595.524L437.819 595.574C437.038 594.302 437.544 590.053 437.546 588.454L437.572 564.654Z"/>
	<path fill="#FEFEFE" transform="scale(0.488281 0.488281)" d="M394.597 564.25L398 564.117C399.568 565.158 399.852 567.768 400.359 569.58L404.832 588.314L408.933 572C409.609 569.513 410.08 566.867 411.25 564.558C412.779 564.485 414.21 564.35 415.709 564.75C416.867 567.206 417.239 570.105 417.854 572.743L421.54 590.101C422.287 585.422 424.956 567.528 426.914 564.819L430.75 564.781L431.423 565.5L430.189 570.118L424.102 595.26L418.747 595.181L413.106 570.883L406.85 595.233C405.281 595.278 403.811 595.218 402.25 595.052C400.928 591.709 393.877 566.026 394.597 564.25Z"/>
	<path fill="#FEFEFE" transform="scale(0.488281 0.488281)" d="M556.046 565.75L561.506 565.606L569.336 588.538L577.915 565.657L584.74 565.638C584.714 570.39 585.842 592.97 584.5 595.401L581.25 595.504L580.485 594.75L580.469 573.25L580.25 571.643C577.285 576.174 575.508 583.05 573.653 588.206C572.903 590.288 572.344 592.643 570.939 594.383L567.75 594.563C566.234 593.672 565.555 590.831 564.926 589.156L558.204 570.257C557.428 576.139 557.994 582.747 557.986 588.706C557.983 590.471 558.398 593.573 557.5 595.025C556.128 595.126 554.484 595.509 553.269 594.75L553.436 574.769C553.468 572.598 553.039 568.744 553.918 566.814C554.311 565.953 555.212 565.997 556.046 565.75Z"/>
	<path fill="#FEFEFE" transform="scale(0.488281 0.488281)" d="M528.668 565.128C531.845 564.966 535.01 564.727 538.047 565.903C541.538 567.256 543.93 569.925 545.25 573.398C547.097 578.26 546.878 583.875 544.729 588.606C542.898 592.638 539.207 594.564 535.251 595.936C532.278 596.054 529.52 596.251 526.689 595.127C523.218 593.749 520.33 590.639 518.883 587.207C516.962 582.645 517.175 576.852 519.26 572.381C521.092 568.451 524.733 566.389 528.668 565.128Z"/>
	<path fill="#C96D37" transform="scale(0.488281 0.488281)" d="M528.845 569.56C530.762 569.301 532.841 569.14 534.75 569.544C536.786 569.975 538.691 571.658 539.75 573.38C541.742 576.617 541.861 580.622 540.962 584.25C540.136 587.581 538.092 589.647 535.257 591.4C533.626 591.674 532.147 591.836 530.5 591.564C528.101 591.167 525.974 589.67 524.682 587.614C522.788 584.599 522.422 580.334 523.166 576.922C523.955 573.311 525.742 571.449 528.845 569.56Z"/>
	<path fill="#F8AD3D" transform="scale(0.488281 0.488281)" d="M403.252 469.339C419.874 476.333 438.045 481.094 455.764 484.268C510.48 494.068 568.888 489.033 620.787 468.889L626.342 502.029C627.252 508.433 627.385 515.788 629.057 521.979L391.53 522.035L403.252 469.339Z"/>
	<path fill="#FB8F04" transform="scale(0.488281 0.488281)" d="M686.421 432.496C703.292 459.43 712.26 490.419 719.042 521.208L722.061 542.326C722.097 553.837 720.757 564.685 714.101 574.448C707.104 584.712 696.313 590.98 684.183 593.121C672.215 595.233 660.662 591.506 651.008 584.564C630.885 570.092 632.516 543.856 629.057 521.979C627.385 515.788 627.252 508.433 626.342 502.029L620.787 468.889C644.093 459.75 665.917 446.76 686.421 432.496Z"/>
	<path fill="#FB8F04" transform="scale(0.488281 0.488281)" d="M338.489 427.469C352.659 441.961 368.219 452.88 386.436 461.741C391.945 464.421 397.841 466.529 403.252 469.339L391.53 522.035L387.358 544.444C384.558 561.374 382.203 574.874 366.88 585.071C357.675 591.198 345.721 594.262 334.773 591.84C322.428 589.109 312.291 581.451 305.676 570.724C300.732 562.708 299.401 553.715 299.48 544.463L300.879 522.504C304.801 488.892 318.162 454.528 338.489 427.469Z"/>
	<path fill="#1DAA69" transform="scale(0.488281 0.488281)" d="M719.042 521.208L751.91 521.104C757.489 521.089 764.064 520.422 769.521 521.515C773.324 522.277 777.162 524.391 779.968 527.046C786.694 533.412 787.003 541.043 787.01 549.571L786.637 659.116C789.167 661.968 790.737 665.642 793.401 668.267L794.248 669.917L806.54 690.086C812.661 703.186 816.008 716.649 810.858 730.721C808.993 735.819 806.501 740.232 802.808 744.219C807.647 743.494 812.654 742.813 817.555 742.963L819.549 743.134C824.886 744.069 830.28 745.051 835.28 747.226C845.568 751.701 855.076 761.862 862.048 770.481C869.559 780.101 878.506 790.484 884.164 801.293L883.396 801.945L858.106 831.415C855.079 834.736 851.779 838.926 848.234 841.681C821.512 867.785 792.615 890.99 760.706 910.518C685.594 956.485 596.483 980.465 508.5 979.46C473.906 979.064 438.464 975.448 404.723 967.75C366.118 958.942 328.183 944.624 293.075 926.359L268.391 912.623C266.142 911.268 263.003 909.825 261.07 908.103L260.812 907.772C255.081 904.829 249.54 900.719 244.293 896.979C244.35 894.048 243.388 891.266 242.865 888.406C242.142 884.457 242.005 878.836 242.699 874.874L242.816 874.25C243.544 870.034 244.811 865.278 247.786 862.073C251.134 863.789 254.238 865.018 258.035 865.446C265.669 866.308 273.871 865.831 281.569 865.857L324.698 865.941L452.146 865.692C449.859 863.584 447.419 861.066 445.75 858.435C443.991 855.662 443.256 853.008 444.028 849.789C444.632 847.265 445.019 844.276 446.536 842.135L445.815 841.071L444.673 840.485C443.927 838.888 443.248 837.302 442.988 835.544C442.6 832.926 442.861 830.212 444.583 828.116C447.513 824.552 451.152 823.663 455.52 823.306C456.911 822.804 459.373 823.096 460.936 823.062L477.831 822.598C480.581 822.502 483.893 822.569 486.25 820.938C489.327 818.808 490.683 814.454 492.175 811.144C495.408 803.97 498.65 796.633 500.426 788.939L500.798 788.426C502.057 785.062 503.678 782.005 507.096 780.428C509.801 779.18 512.948 779.232 515.673 780.399C518.824 781.749 520.764 784.356 521.962 787.5L522.39 788.966C524.39 794.68 533.72 819.114 538.5 821.417C541.522 822.873 545.881 822.606 549.172 822.74L564.493 823.399C570.781 823.555 577.121 823.662 580.099 830.337C581.345 833.129 581.015 835.99 579.801 838.732L579.355 839.666L580.037 840.449L706.914 840.543L742.342 840.59C747.226 840.595 753.135 841.226 757.895 840.48C759.143 840.284 760.87 838.631 761.717 837.75C763.555 835.838 764.224 833.062 764.414 830.486C764.974 822.928 764.46 814.941 764.442 807.346L764.39 761.447L763.975 635.511L764.003 635.259L764.079 582.206L764.055 560.296C764.049 556.457 764.352 552.244 763.937 548.437C763.808 547.258 762.457 545.395 761.639 544.567C760.328 543.24 758.943 542.663 757.151 542.326C753.49 541.636 749.259 541.977 745.519 541.984L722.061 542.326L719.042 521.208Z"/>
	<path fill="#108B58" transform="scale(0.488281 0.488281)" d="M465.749 909.918C468.653 912.727 471.71 915.102 475.983 915.045C481.297 914.974 486.506 910.436 490.74 907.523L503.535 898.871C506.224 897.072 509.055 894.663 512.494 894.953C516.896 895.323 523.033 900.652 526.674 903.122L541.701 912.791C543.415 913.784 546.942 915.823 548.895 915.863C552.023 915.927 556.623 912.456 558.771 910.558C559.745 912.286 560.785 913.854 561.474 915.732L561.692 916.339L562.107 917.451C563.126 920.668 562.527 924.813 560.979 927.747C558.978 931.537 555.287 934.509 551.152 935.661C548.33 936.447 545.156 936.089 542.438 935.095C538.684 933.723 535.12 931.097 531.752 928.976C525.065 924.765 518.454 920.255 511.415 916.664C501.393 920.22 494.028 927.763 484.982 932.84C480.658 935.267 476.488 936.34 471.578 934.764C468.599 933.809 465.462 931.506 464.116 928.626L463.863 928.052L463.598 927.517C461.372 922.635 463.932 914.689 465.749 909.918Z"/>
	<path fill="#1E9D63" transform="scale(0.488281 0.488281)" d="M595.907 865.66L704.241 865.644L743.721 865.816C750.508 865.816 757.732 866.237 764.461 865.446C769.465 864.857 773.672 862.237 777.661 859.38C782.233 865.795 784.178 870.969 782.885 878.919C781.775 885.749 776.083 892.3 770.531 896.13C767.403 898.287 763.001 900.665 759.184 901.049C749.945 901.977 740.115 901.154 730.793 901.171L672.807 901.362L601.721 901.066L576.59 901.041C571.685 901.035 566.586 901.259 561.706 900.816L556.158 882.422C555.431 880.101 550.989 868.21 551.317 866.5C551.419 865.967 551.745 865.502 551.959 865.002C556.019 866.918 564.773 865.978 569.308 865.948L595.907 865.66Z"/>
	<path fill="#108B58" transform="scale(0.488281 0.488281)" d="M551.959 865.002C556.019 866.918 564.773 865.978 569.308 865.948C564.698 870.75 559.928 875.404 556.863 881.363L556.158 882.422C555.431 880.101 550.989 868.21 551.317 866.5C551.419 865.967 551.745 865.502 551.959 865.002Z"/>
	<path fill="#1E9D63" transform="scale(0.488281 0.488281)" d="M247.786 862.073C251.134 863.789 254.238 865.018 258.035 865.446C265.669 866.308 273.871 865.831 281.569 865.857L324.698 865.941L452.146 865.692L453.026 866.049L472.513 866.005C472.457 870.699 470.846 875.412 469.706 879.939L463.792 900.862C457.757 902.489 449.06 901.456 442.736 901.453L401.042 901.33L277.71 901.563L258.051 902.292C257.041 902.336 255.366 902 254.85 902.855C255.457 903.834 256.021 903.594 256.75 904.5C257.6 904.82 257.639 904.741 258.25 905.5C259.549 905.765 259.72 905.958 260.709 906.866L260.812 907.772C255.081 904.829 249.54 900.719 244.293 896.979C244.35 894.048 243.388 891.266 242.865 888.406C242.142 884.457 242.005 878.836 242.699 874.874L242.816 874.25C243.544 870.034 244.811 865.278 247.786 862.073Z"/>
	<path fill="#108B58" transform="scale(0.488281 0.488281)" d="M453.026 866.049L472.513 866.005C472.457 870.699 470.846 875.412 469.706 879.939C467.152 878.781 465.103 876.61 463.035 874.751L453.026 866.049Z"/>
	<path fill="#F8AD3D" transform="scale(0.488281 0.488281)" d="M500.798 788.426C502.057 785.062 503.678 782.005 507.096 780.428C509.801 779.18 512.948 779.232 515.673 780.399C518.824 781.749 520.764 784.356 521.962 787.5L522.39 788.966C524.39 794.68 533.72 819.114 538.5 821.417C541.522 822.873 545.881 822.606 549.172 822.74L564.493 823.399C570.781 823.555 577.121 823.662 580.099 830.337C581.345 833.129 581.015 835.99 579.801 838.732L579.355 839.666C578.388 840.541 577.699 841.41 576.919 842.458C574.669 845.477 571.597 847.679 568.697 850.034L557.628 859.35C555.69 861.018 553.135 862.702 551.959 865.002C551.745 865.502 551.419 865.967 551.317 866.5C550.989 868.21 555.431 880.101 556.158 882.422L561.706 900.816C561.646 904.855 561.124 907.157 558.771 910.558C556.623 912.456 552.023 915.927 548.895 915.863C546.942 915.823 543.415 913.784 541.701 912.791L526.674 903.122C523.033 900.652 516.896 895.323 512.494 894.953C509.055 894.663 506.224 897.072 503.535 898.871L490.74 907.523C486.506 910.436 481.297 914.974 475.983 915.045C471.71 915.102 468.653 912.727 465.749 909.918C463.851 906.848 463.409 904.449 463.792 900.862L469.706 879.939C470.846 875.412 472.457 870.699 472.513 866.005L453.026 866.049L452.146 865.692C449.859 863.584 447.419 861.066 445.75 858.435C443.991 855.662 443.256 853.008 444.028 849.789C444.632 847.265 445.019 844.276 446.536 842.135L445.815 841.071L444.673 840.485C443.927 838.888 443.248 837.302 442.988 835.544C442.6 832.926 442.861 830.212 444.583 828.116C447.513 824.552 451.152 823.663 455.52 823.306C456.911 822.804 459.373 823.096 460.936 823.062L477.831 822.598C480.581 822.502 483.893 822.569 486.25 820.938C489.327 818.808 490.683 814.454 492.175 811.144C495.408 803.97 498.65 796.633 500.426 788.939L500.798 788.426Z"/>
	<path fill="#6C3F36" transform="scale(0.488281 0.488281)" d="M452.146 865.692C449.859 863.584 447.419 861.066 445.75 858.435C443.991 855.662 443.256 853.008 444.028 849.789C444.632 847.265 445.019 844.276 446.536 842.135C450.95 846.029 472.322 860.783 472.539 865.377L472.513 866.005L453.026 866.049L452.146 865.692Z"/>
	<path fill="#F9C42E" transform="scale(0.488281 0.488281)" d="M500.798 788.426C502.487 787.236 503.759 785.422 505.499 784.237C507.161 783.105 508.534 783.13 510.453 783.439C512.03 783.804 512.341 783.726 513.426 785L513.465 844.48L514.411 846.408L569.707 826.056L573.806 830.328C559.558 837.831 543.229 843.041 528.09 848.442C523.99 849.905 519.418 850.9 515.481 852.647L515.806 853.02C522.578 860.903 528.443 869.891 534.944 878.048L546.615 892.209C548.319 894.261 550.32 896.253 551.802 898.466C552.937 900.162 552.881 900.443 552.75 902.408C551.675 903.466 551.043 904.107 549.5 904.424C549.123 904.326 548.695 904.342 548.369 904.129C545.557 902.293 542.336 896.677 540.186 893.911L511.483 856.455L491.865 882.487L482.701 894.89C480.461 898.008 478.066 902.536 474.75 904.507C472.803 904.673 471.789 904.666 470.222 903.305C469.392 902.583 469.548 902.276 469.367 901.25C470.487 897.762 475.089 893.149 477.367 890.072L486.755 876.5L487.224 875.781C487.899 874.769 488.739 873.932 489.363 872.892C491.918 868.64 495.676 864.866 498.308 860.565C499.864 858.022 503.395 856.346 504.075 853.503L505.23 853.252L504.114 852.812L504.154 852.2C499.325 849.699 493.44 848.175 488.296 846.303L462.487 836.33C458.018 834.524 453.285 832.98 449.415 830.047L449.791 829.637C451.198 828.03 451.841 827.176 453.944 826.569L455.318 826.334C455.599 825.213 455.918 824.436 455.52 823.306C456.911 822.804 459.373 823.096 460.936 823.062L477.831 822.598C480.581 822.502 483.893 822.569 486.25 820.938C489.327 818.808 490.683 814.454 492.175 811.144C495.408 803.97 498.65 796.633 500.426 788.939L500.798 788.426Z"/>
	<path fill="#F6CE88" transform="scale(0.488281 0.488281)" d="M510.453 783.439C512.03 783.804 512.341 783.726 513.426 785L513.465 844.48L509.5 844.061L508.925 843.25L509.447 796.437L509.556 787.75C509.566 786.97 509.373 785.182 509.597 784.5C509.739 784.068 510.168 783.793 510.453 783.439Z"/>
	<path fill="#F6CE88" transform="scale(0.488281 0.488281)" d="M453.944 826.569L509.508 846.995C510.282 849.034 509.462 851.718 509.181 853.853C507.957 853.398 505.348 852.025 504.154 852.2C499.325 849.699 493.44 848.175 488.296 846.303L462.487 836.33C458.018 834.524 453.285 832.98 449.415 830.047L449.791 829.637C451.198 828.03 451.841 827.176 453.944 826.569Z"/>
	<path fill="#924E31" transform="scale(0.488281 0.488281)" d="M719.042 521.208L751.91 521.104C757.489 521.089 764.064 520.422 769.521 521.515C773.324 522.277 777.162 524.391 779.968 527.046C786.694 533.412 787.003 541.043 787.01 549.571L786.637 659.116C789.167 661.968 790.737 665.642 793.401 668.267L794.248 669.917L806.54 690.086C812.661 703.186 816.008 716.649 810.858 730.721C808.993 735.819 806.501 740.232 802.808 744.219C807.647 743.494 812.654 742.813 817.555 742.963L819.549 743.134C824.886 744.069 830.28 745.051 835.28 747.226C845.568 751.701 855.076 761.862 862.048 770.481C869.559 780.101 878.506 790.484 884.164 801.293L883.396 801.945L858.106 831.415C855.079 834.736 851.779 838.926 848.234 841.681C842.529 840.557 835.484 841.401 829.571 841.401L786.853 841.374L786.831 814.125L786.726 834.142C786.716 837.914 787.075 842.214 786.063 845.861C784.704 850.758 781.705 855.594 778 859.081L777.661 859.38C773.672 862.237 769.465 864.857 764.461 865.446C757.732 866.237 750.508 865.816 743.721 865.816L704.241 865.644L595.907 865.66L569.308 865.948C564.773 865.978 556.019 866.918 551.959 865.002C553.135 862.702 555.69 861.018 557.628 859.35L568.697 850.034C571.597 847.679 574.669 845.477 576.919 842.458C577.699 841.41 578.388 840.541 579.355 839.666L580.037 840.449L706.914 840.543L742.342 840.59C747.226 840.595 753.135 841.226 757.895 840.48C759.143 840.284 760.87 838.631 761.717 837.75C763.555 835.838 764.224 833.062 764.414 830.486C764.974 822.928 764.46 814.941 764.442 807.346L764.39 761.447L763.975 635.511L764.003 635.259L764.079 582.206L764.055 560.296C764.049 556.457 764.352 552.244 763.937 548.437C763.808 547.258 762.457 545.395 761.639 544.567C760.328 543.24 758.943 542.663 757.151 542.326C753.49 541.636 749.259 541.977 745.519 541.984L722.061 542.326L719.042 521.208Z"/>
	<path fill="#1DAA69" transform="scale(0.488281 0.488281)" d="M786.529 739.418C788.226 742.146 789.951 745.524 792.454 747.592L793.193 748.029C792.129 750.755 791.466 753.334 790.809 756.17C790.35 758.151 791.247 759.482 791.622 761.378L790.974 761.537L786.796 766.797L786.529 739.418Z"/>
	<path fill="#6C3F36" transform="scale(0.488281 0.488281)" d="M551.959 865.002C553.135 862.702 555.69 861.018 557.628 859.35L568.697 850.034C571.597 847.679 574.669 845.477 576.919 842.458C577.699 841.41 578.388 840.541 579.355 839.666L580.037 840.449L580.467 841.365C582.108 845.04 582.533 849.52 580.926 853.277C578.854 858.123 573.7 862.225 569.903 865.767L587.863 865.57C590.381 865.559 593.45 865.195 595.907 865.66L569.308 865.948C564.773 865.978 556.019 866.918 551.959 865.002Z"/>
	<path fill="#8BE382" transform="scale(0.488281 0.488281)" d="M786.637 659.116C789.167 661.968 790.737 665.642 793.401 668.267L794.248 669.917L806.54 690.086C812.661 703.186 816.008 716.649 810.858 730.721C808.993 735.819 806.501 740.232 802.808 744.219C807.647 743.494 812.654 742.813 817.555 742.963L819.549 743.134C824.886 744.069 830.28 745.051 835.28 747.226C845.568 751.701 855.076 761.862 862.048 770.481C869.559 780.101 878.506 790.484 884.164 801.293L883.396 801.945L858.106 831.415C855.079 834.736 851.779 838.926 848.234 841.681C842.529 840.557 835.484 841.401 829.571 841.401L786.853 841.374L786.831 814.125L786.922 813.643C786.486 811.148 786.765 808.263 786.781 805.712L786.842 790.053L786.721 775.469C786.7 773.267 786.404 770.561 786.8 768.394C787.295 765.688 791.393 764.774 791.622 761.378C791.247 759.482 790.35 758.151 790.809 756.17C791.466 753.334 792.129 750.755 793.193 748.029L792.454 747.592C789.951 745.524 788.226 742.146 786.529 739.418C785.534 730.258 786.453 720.262 786.481 710.985L786.637 659.116Z"/>
	<path fill="#46C486" transform="scale(0.488281 0.488281)" d="M792.454 747.592C794.291 744.354 793.505 736.738 793.526 732.881L793.294 697.236C792.904 689.028 791.605 680.694 791.715 672.503L792.269 672.923C796.438 691.261 795.795 711.145 795.561 729.827C795.504 734.357 795.484 738.849 794.883 743.349C794.696 744.744 794.63 746.363 793.868 747.587C793.567 748.07 793.652 747.976 793.193 748.029L792.454 747.592Z"/>
	<path fill="#46C486" transform="scale(0.488281 0.488281)" d="M792.533 747.807L794.231 748.523C797.362 749.83 800.185 751.833 803.065 753.613L816.741 761.908L873.989 797.25L873.17 797.252L820.378 766.641L804.037 756.583C799.844 753.962 795.57 751.834 792.533 747.807Z"/>
	<path fill="#1DAA69" transform="scale(0.488281 0.488281)" d="M791.622 761.378C797.165 777.348 808.567 786.999 823.486 794.254C826.827 795.879 830.385 797.443 833.99 798.37C819.783 805.178 802.629 811.61 786.922 813.643C786.486 811.148 786.765 808.263 786.781 805.712L786.842 790.053L786.721 775.469C786.7 773.267 786.404 770.561 786.8 768.394C787.295 765.688 791.393 764.774 791.622 761.378Z"/>
	<path fill="#49B6EA" transform="scale(0.488281 0.488281)" d="M833.99 798.37C850.409 802.614 866.55 803.172 883.396 801.945L858.106 831.415C855.079 834.736 851.779 838.926 848.234 841.681C842.529 840.557 835.484 841.401 829.571 841.401L786.853 841.374L786.831 814.125L786.922 813.643C802.629 811.61 819.783 805.178 833.99 798.37Z"/>
</svg>
